<svg xmlns="http://www.w3.org/2000/svg" viewBox="0 0 64 64" shape-rendering="crispEdges">
  <!-- sfondo testa -->
  <rect x="20" y="8"  width="24" height="28" fill="#F2C89B"/>
  <!-- capelli top -->
  <rect x="18" y="6"  width="28" height="8"  fill="#2A1A0E"/>
  <rect x="16" y="10" width="4"  height="4"  fill="#2A1A0E"/>
  <rect x="44" y="10" width="4"  height="4"  fill="#2A1A0E"/>
  <!-- occhi -->
  <rect x="24" y="20" width="4" height="4" fill="#1F1F28"/>
  <rect x="36" y="20" width="4" height="4" fill="#1F1F28"/>
  <!-- pupille riflesso -->
  <rect x="25" y="21" width="1" height="1" fill="#fff"/>
  <rect x="37" y="21" width="1" height="1" fill="#fff"/>
  <!-- naso -->
  <rect x="30" y="26" width="4" height="2" fill="#D4A574"/>
  <!-- bocca -->
  <rect x="26" y="30" width="12" height="2" fill="#C0614A"/>
  <rect x="24" y="32" width="4"  height="2" fill="#C0614A"/>
  <rect x="36" y="32" width="4"  height="2" fill="#C0614A"/>
  <!-- orecchie -->
  <rect x="16" y="20" width="4" height="8" fill="#F2C89B"/>
  <rect x="44" y="20" width="4" height="8" fill="#F2C89B"/>
  <!-- collo -->
  <rect x="26" y="36" width="12" height="6" fill="#F2C89B"/>
  <!-- corpo / maglia -->
  <rect x="14" y="42" width="36" height="22" fill="#FF5D62"/>
  <!-- colletto -->
  <rect x="24" y="40" width="16" height="6" fill="#E04A50"/>
  <!-- braccia -->
  <rect x="8"  y="42" width="8" height="18" fill="#FF5D62"/>
  <rect x="48" y="42" width="8" height="18" fill="#FF5D62"/>
  <!-- mani -->
  <rect x="8"  y="58" width="8" height="6" fill="#F2C89B"/>
  <rect x="48" y="58" width="8" height="6" fill="#F2C89B"/>
</svg>
